<?xml version="1.0" encoding="utf-8"?>
<!-- Generator: Adobe Illustrator 19.0.0, SVG Export Plug-In . SVG Version: 6.00 Build 0)  -->
<svg version="1.1" id="Layer_1" xmlns="http://www.w3.org/2000/svg" xmlns:xlink="http://www.w3.org/1999/xlink" x="0px" y="0px"
	 viewBox="-25 216 380 290" style="enable-background:new -25 216 380 290;" xml:space="preserve">
<style type="text/css">
	.st0{fill:#7CDFAA;}
	.st1{fill:#FFF140;}
	.st2{fill:#FFF100;}
	.st3{opacity:0.1;fill:url(#SVGID_1_);enable-background:new    ;}
	.st4{opacity:0.1;fill:url(#SVGID_2_);enable-background:new    ;}
	.st5{opacity:0.1;fill:url(#SVGID_3_);enable-background:new    ;}
	.st6{opacity:0.1;fill:url(#SVGID_4_);enable-background:new    ;}
	.st7{opacity:0.1;fill:url(#SVGID_5_);enable-background:new    ;}
	.st8{opacity:0.1;fill:url(#SVGID_6_);enable-background:new    ;}
	.st9{fill:#213B2D;}
	.st10{fill:#43AAA0;}
	.st11{fill:#A1D5CF;}
	.st12{fill:#378AC6;}
	.st13{fill:#F7DEDB;}
	.st14{fill:#F6CB6B;}
	.st15{fill:#7E2241;}
	.st16{opacity:0.1;fill:url(#SVGID_7_);enable-background:new    ;}
	.st17{opacity:0.1;fill:url(#SVGID_8_);enable-background:new    ;}
	.st18{opacity:0.1;fill:url(#SVGID_9_);enable-background:new    ;}
</style>
<g>
	<path class="st0" d="M171.7,285.9c0,1.1-0.9,2-2,2l0,0c-1.1,0-2-0.9-2-2l0.1-18.3c0-1.1,0.9-2,2-2l0,0c1.1,0,2,0.9,2,2L171.7,285.9
		z"/>
	<path class="st0" d="M175.7,282.2c-0.7,0.9-1.9,1.1-2.8,0.4l0,0c-0.9-0.7-1.1-1.9-0.4-2.8l10.8-14.8c0.7-0.9,1.9-1.1,2.8-0.4l0,0
		c0.9,0.7,1.1,1.9,0.4,2.8L175.7,282.2z"/>
	<path class="st0" d="M178.4,286c-0.8,0.2-1.7-0.4-2-1.5l0,0c-0.3-1.1,0.1-2.1,0.9-2.4l13.2-4c0.8-0.2,1.7,0.4,2,1.5l0,0
		c0.3,1.1-0.1,2.1-0.9,2.4L178.4,286z"/>
	<path class="st1" d="M158.8,275.4c0.4-0.8,11.6-0.7,12.4-0.2c1.9,1.2,5.7,3.5,7.6,4.7c0.8,0.5,7.4,11.4,6.8,12.2
		c-11.5,15-51.6,55.1-51.6,55.1c-0.5,0.8-1.5,1-2.3,0.5l0,0c-0.8-0.5-1-1.5-0.5-2.3C131.1,345.4,150.3,292.2,158.8,275.4z"/>
</g>
<g>
	<path class="st0" d="M131,269.2c0.7,0.8,0.6,2.1-0.2,2.8l0,0c-0.8,0.7-2.1,0.6-2.8-0.2l-12.1-13.8c-0.7-0.8-0.6-2.1,0.2-2.8l0,0
		c0.8-0.7,2.1-0.6,2.8,0.2L131,269.2z"/>
	<path class="st0" d="M134.3,266c0.4,1-0.1,2.2-1.1,2.6l0,0c-1,0.4-2.2-0.1-2.6-1.1l-7.1-16.9c-0.4-1,0.1-2.2,1.1-2.6l0,0
		c1-0.4,2.2,0.1,2.6,1.1L134.3,266z"/>
	<path class="st0" d="M139.1,268.5c-0.1,0.8-1.1,1.3-2.2,1.2l0,0c-1.1-0.2-1.9-1-1.7-1.8l2.3-13.6c0.1-0.8,1.1-1.3,2.2-1.2l0,0
		c1.1,0.2,1.9,1,1.7,1.8L139.1,268.5z"/>
	<path class="st2" d="M116,274.9c-0.2-0.9,8.2-8.3,9.1-8.4c2.2-0.4,6.6-1.1,8.8-1.5c0.9-0.2,13.1,3.6,13.2,4.6
		c1.3,18.8-2,75.5-2,75.5c0.2,0.9-0.5,1.8-1.4,2l0,0c-0.9,0.2-1.8-0.5-2-1.4C141.7,345.6,120.8,293.1,116,274.9z"/>
</g>
<linearGradient id="SVGID_1_" gradientUnits="userSpaceOnUse" x1="127.1454" y1="424.4939" x2="253.3658" y2="227.0405" gradientTransform="matrix(0.9983 -5.780000e-02 -5.780000e-02 -0.9983 30.336 775.6247)">
	<stop  offset="0" style="stop-color:#000000"/>
	<stop  offset="8.450000e-02" style="stop-color:#101010;stop-opacity:0.9034"/>
	<stop  offset="0.2495" style="stop-color:#393939;stop-opacity:0.715"/>
	<stop  offset="0.4785" style="stop-color:#7C7C7C;stop-opacity:0.4533"/>
	<stop  offset="0.76" style="stop-color:#D8D8D8;stop-opacity:0.1316"/>
	<stop  offset="0.8752" style="stop-color:#FFFFFF;stop-opacity:0"/>
</linearGradient>
<polygon class="st3" points="167.7,504.3 69.7,416.8 281,416.8 338,468.8 "/>
<linearGradient id="SVGID_2_" gradientUnits="userSpaceOnUse" x1="396.3315" y1="430.8359" x2="455.8561" y2="337.7183" gradientTransform="matrix(0.739 0.1144 -0.2092 -0.8978 34.257 773.3051)">
	<stop  offset="0" style="stop-color:#000000"/>
	<stop  offset="8.450000e-02" style="stop-color:#101010;stop-opacity:0.9034"/>
	<stop  offset="0.2495" style="stop-color:#393939;stop-opacity:0.715"/>
	<stop  offset="0.4785" style="stop-color:#7C7C7C;stop-opacity:0.4533"/>
	<stop  offset="0.76" style="stop-color:#D8D8D8;stop-opacity:0.1316"/>
	<stop  offset="0.8752" style="stop-color:#FFFFFF;stop-opacity:0"/>
</linearGradient>
<polygon class="st4" points="260.4,507 203.2,470.3 272.2,452.9 336.6,487 "/>
<linearGradient id="SVGID_3_" gradientUnits="userSpaceOnUse" x1="133.6746" y1="412.3298" x2="150.5275" y2="385.9659" gradientTransform="matrix(0.739 0.1144 -0.2092 -0.8978 34.257 773.3051)">
	<stop  offset="0" style="stop-color:#000000"/>
	<stop  offset="0.1482" style="stop-color:#030303;stop-opacity:0.8307"/>
	<stop  offset="0.2631" style="stop-color:#0D0D0D;stop-opacity:0.6994"/>
	<stop  offset="0.3669" style="stop-color:#1D1D1D;stop-opacity:0.5809"/>
	<stop  offset="0.464" style="stop-color:#353535;stop-opacity:0.4698"/>
	<stop  offset="0.5566" style="stop-color:#535353;stop-opacity:0.364"/>
	<stop  offset="0.6458" style="stop-color:#787878;stop-opacity:0.2621"/>
	<stop  offset="0.7322" style="stop-color:#A4A4A4;stop-opacity:0.1634"/>
	<stop  offset="0.8144" style="stop-color:#D5D5D5;stop-opacity:6.950000e-02"/>
	<stop  offset="0.8752" style="stop-color:#FFFFFF;stop-opacity:0"/>
</linearGradient>
<polygon class="st5" points="45.5,443.5 34.6,431.3 60.8,425.9 77.6,432.1 "/>
<linearGradient id="SVGID_4_" gradientUnits="userSpaceOnUse" x1="81.1899" y1="379.6814" x2="97.7073" y2="353.8425" gradientTransform="matrix(0.739 0.1144 -0.2092 -0.8978 34.257 773.3051)">
	<stop  offset="0" style="stop-color:#000000"/>
	<stop  offset="0.1482" style="stop-color:#030303;stop-opacity:0.8307"/>
	<stop  offset="0.2631" style="stop-color:#0D0D0D;stop-opacity:0.6994"/>
	<stop  offset="0.3669" style="stop-color:#1D1D1D;stop-opacity:0.5809"/>
	<stop  offset="0.464" style="stop-color:#353535;stop-opacity:0.4698"/>
	<stop  offset="0.5566" style="stop-color:#535353;stop-opacity:0.364"/>
	<stop  offset="0.6458" style="stop-color:#787878;stop-opacity:0.2621"/>
	<stop  offset="0.7322" style="stop-color:#A4A4A4;stop-opacity:0.1634"/>
	<stop  offset="0.8144" style="stop-color:#D5D5D5;stop-opacity:6.950000e-02"/>
	<stop  offset="0.8752" style="stop-color:#FFFFFF;stop-opacity:0"/>
</linearGradient>
<polygon class="st6" points="14.9,468.6 3.2,454.1 28.6,446.8 44.7,455.3 "/>
<linearGradient id="SVGID_5_" gradientUnits="userSpaceOnUse" x1="115.6494" y1="366.4293" x2="123.4644" y2="354.2039" gradientTransform="matrix(0.739 0.1144 -0.2092 -0.8978 34.257 773.3051)">
	<stop  offset="0" style="stop-color:#000000"/>
	<stop  offset="0.1482" style="stop-color:#030303;stop-opacity:0.8307"/>
	<stop  offset="0.2631" style="stop-color:#0D0D0D;stop-opacity:0.6994"/>
	<stop  offset="0.3669" style="stop-color:#1D1D1D;stop-opacity:0.5809"/>
	<stop  offset="0.464" style="stop-color:#353535;stop-opacity:0.4698"/>
	<stop  offset="0.5566" style="stop-color:#535353;stop-opacity:0.364"/>
	<stop  offset="0.6458" style="stop-color:#787878;stop-opacity:0.2621"/>
	<stop  offset="0.7322" style="stop-color:#A4A4A4;stop-opacity:0.1634"/>
	<stop  offset="0.8144" style="stop-color:#D5D5D5;stop-opacity:6.950000e-02"/>
	<stop  offset="0.8752" style="stop-color:#FFFFFF;stop-opacity:0"/>
</linearGradient>
<polygon class="st7" points="45.5,470.2 38.7,462.6 48.8,460.6 56.1,464.8 "/>
<linearGradient id="SVGID_6_" gradientUnits="userSpaceOnUse" x1="252.6919" y1="367.6108" x2="273.8297" y2="334.5438" gradientTransform="matrix(0.739 0.1144 -0.2092 -0.8978 34.257 773.3051)">
	<stop  offset="0" style="stop-color:#000000"/>
	<stop  offset="0.1147" style="stop-color:#040404;stop-opacity:0.869"/>
	<stop  offset="0.2252" style="stop-color:#0F0F0F;stop-opacity:0.7427"/>
	<stop  offset="0.3341" style="stop-color:#232323;stop-opacity:0.6183"/>
	<stop  offset="0.442" style="stop-color:#3E3E3E;stop-opacity:0.495"/>
	<stop  offset="0.5492" style="stop-color:#616161;stop-opacity:0.3726"/>
	<stop  offset="0.6558" style="stop-color:#8C8C8C;stop-opacity:0.2507"/>
	<stop  offset="0.7621" style="stop-color:#C0C0C0;stop-opacity:0.1293"/>
	<stop  offset="0.8656" style="stop-color:#F9F9F9;stop-opacity:1.110000e-02"/>
	<stop  offset="0.8752" style="stop-color:#FFFFFF;stop-opacity:0"/>
</linearGradient>
<polygon class="st8" points="134.1,484.3 142.9,481 157.8,483.8 177.4,493.3 "/>
<path class="st9" d="M130.8,348c4.5,16.2-3.7,32.6-18.2,36.6l0,0c-14.6,4-30-5.8-34.5-22l-18.5-67c-4.5-16.2,3.7-32.6,18.2-36.6l0,0
	c14.6-4,30,5.8,34.5,22L130.8,348z"/>
<path class="st10" d="M78.9,260.9c0.3,0.7,0,1.5-0.6,1.9l0,0c-0.7,0.3-1.5,0-1.9-0.6l-3.3-6.8c-0.3-0.7,0-1.5,0.6-1.9l0,0
	c0.7-0.3,1.5,0,1.9,0.6L78.9,260.9z"/>
<path class="st11" d="M67.9,294.4c0.2,1.8-0.5,3.3-1.6,3.5l0,0c-1.1,0.2-2.2-1.1-2.5-2.9l-1-6.8c-0.2-1.8,0.5-3.3,1.6-3.5l0,0
	c1.1-0.2,2.2,1.1,2.5,2.9L67.9,294.4z"/>
<polyline class="st12" points="175,416.8 281,416.8 303.4,303.2 175,303.2 175.7,303.2 47.3,303.2 69.7,416.8 175.7,416.8 "/>
<circle class="st13" cx="83.6" cy="317" r="7.6"/>
<path class="st14" d="M173.8,247.2c2,2.6,1.5,6.5-1.2,8.6L90,319.6c-2.7,2.1-6.5,1.7-8.6-1l0,0c-2-2.6-1.5-6.5,1.2-8.6l82.5-63.9
	C167.9,244.1,171.7,244.6,173.8,247.2L173.8,247.2z"/>
<circle class="st13" cx="267.1" cy="317" r="7.6"/>
<path class="st14" d="M177,247.2c-2,2.6-1.5,6.5,1.2,8.6l82.5,63.9c2.7,2.1,6.5,1.7,8.6-1l0,0c2-2.6,1.5-6.5-1.2-8.6l-82.5-63.9
	C182.8,244.1,179,244.6,177,247.2L177,247.2z"/>
<g>
	<path class="st0" d="M273.5,440.9c-0.6,0.9-1.9,1.1-2.8,0.5l0,0c-0.9-0.6-1.1-1.9-0.5-2.8l10.5-15c0.6-0.9,1.9-1.1,2.8-0.5l0,0
		c0.9,0.6,1.1,1.9,0.5,2.8L273.5,440.9z"/>
	<path class="st0" d="M277.4,443.4c-0.9,0.7-2.2,0.5-2.8-0.4l0,0c-0.7-0.9-0.5-2.2,0.4-2.8l14.7-10.9c0.9-0.7,2.2-0.5,2.8,0.4l0,0
		c0.7,0.9,0.5,2.2-0.4,2.8L277.4,443.4z"/>
	<path class="st0" d="M275.7,446.1c-0.8-0.2-1.2-1.3-0.9-2.4l0,0c0.3-1.1,1.2-1.7,2-1.5l13.3,4c0.8,0.2,1.2,1.3,0.9,2.4l0,0
		c-0.3,1.1-1.2,1.7-2,1.5L275.7,446.1z"/>
	<path class="st1" d="M264.4,427.7c0.8-0.4,10,6,10.4,6.9c0.9,2.1,2.7,6.2,3.6,8.2c0.4,0.9-0.4,13.6-1.3,13.9
		c-18,5.8-73.8,16-73.8,16c-0.9,0.4-1.9,0-2.2-0.9l0,0c-0.4-0.9,0-1.9,0.9-2.2C201.9,469.6,247.9,436.7,264.4,427.7z"/>
</g>
<g>
	<path class="st0" d="M83.9,461.3c0.7,0.9,2,1,2.8,0.3l0,0c0.9-0.7,1-2,0.3-2.8l-11.7-14.1c-0.7-0.9-2-1-2.8-0.3l0,0
		c-0.9,0.7-1,2-0.3,2.8L83.9,461.3z"/>
	<path class="st0" d="M80.3,464.2c0.9,0.6,2.2,0.3,2.8-0.7l0,0c0.6-0.9,0.3-2.2-0.7-2.8l-15.6-9.6c-0.9-0.6-2.2-0.3-2.8,0.7l0,0
		c-0.6,0.9-0.3,2.2,0.7,2.8L80.3,464.2z"/>
	<path class="st0" d="M82.2,466.7c0.8-0.3,1.1-1.4,0.7-2.4l0,0c-0.4-1-1.4-1.6-2.2-1.3l-12.9,5.1c-0.8,0.3-1.1,1.4-0.7,2.4l0,0
		c0.4,1,1.4,1.6,2.2,1.3L82.2,466.7z"/>
	<path class="st14" d="M91.9,447.4c-0.9-0.4-9.4,6.8-9.7,7.7c-0.7,2.1-2.2,6.4-2.9,8.5c-0.3,0.9,1.6,13.5,2.5,13.7
		c18.4,4.3,74.9,9.7,74.9,9.7c0.9,0.3,1.8-0.2,2.1-1.1l0,0c0.3-0.9-0.2-1.8-1.1-2.1C157.8,483.8,109.1,455,91.9,447.4z"/>
</g>
<circle class="st15" cx="45" cy="415.8" r="18.7"/>
<path class="st10" d="M43.9,401.1c0.1,0.6-0.5,1.1-1.3,1.2l0,0c-0.8,0.1-1.4-0.3-1.5-0.8l-0.7-5.5c-0.1-0.6,0.5-1.1,1.3-1.2l0,0
	c0.8-0.1,1.4,0.3,1.5,0.8L43.9,401.1z"/>
<circle class="st15" cx="13.9" cy="443.5" r="15.1"/>
<path class="st10" d="M7.6,433.3c0.3,0.4,0,1-0.5,1.3l0,0c-0.5,0.3-1.1,0.3-1.4-0.1l-2.5-3.7c-0.3-0.4,0-1,0.5-1.3l0,0
	c0.5-0.3,1.1-0.3,1.4,0.1L7.6,433.3z"/>
<circle class="st15" cx="43.9" cy="457.7" r="7.2"/>
<path class="st10" d="M45.7,452.3c-0.1,0.2-0.3,0.3-0.6,0.2l0,0c-0.3-0.1-0.5-0.3-0.4-0.5l0.6-2c0.1-0.2,0.3-0.3,0.6-0.2l0,0
	c0.3,0.1,0.5,0.3,0.4,0.5L45.7,452.3z"/>
<linearGradient id="SVGID_7_" gradientUnits="userSpaceOnUse" x1="378.0638" y1="400.1474" x2="437.5851" y2="307.0348" gradientTransform="matrix(0.7478 5.700000e-03 -0.3375 -0.8578 1.7243 747.4387)">
	<stop  offset="0" style="stop-color:#000000"/>
	<stop  offset="8.450000e-02" style="stop-color:#101010;stop-opacity:0.9034"/>
	<stop  offset="0.2495" style="stop-color:#393939;stop-opacity:0.715"/>
	<stop  offset="0.4785" style="stop-color:#7C7C7C;stop-opacity:0.4533"/>
	<stop  offset="0.76" style="stop-color:#D8D8D8;stop-opacity:0.1316"/>
	<stop  offset="0.8752" style="stop-color:#FFFFFF;stop-opacity:0"/>
</linearGradient>
<polygon class="st16" points="183.4,477.3 121.5,449.4 187.3,422.1 255.9,446.4 "/>
<linearGradient id="SVGID_8_" gradientUnits="userSpaceOnUse" x1="301.1153" y1="380.5472" x2="317.6327" y2="354.7082" gradientTransform="matrix(0.739 0.1144 -0.2092 -0.8978 34.257 773.3051)">
	<stop  offset="0" style="stop-color:#000000"/>
	<stop  offset="0.1482" style="stop-color:#030303;stop-opacity:0.8307"/>
	<stop  offset="0.2631" style="stop-color:#0D0D0D;stop-opacity:0.6994"/>
	<stop  offset="0.3669" style="stop-color:#1D1D1D;stop-opacity:0.5809"/>
	<stop  offset="0.464" style="stop-color:#353535;stop-opacity:0.4698"/>
	<stop  offset="0.5566" style="stop-color:#535353;stop-opacity:0.364"/>
	<stop  offset="0.6458" style="stop-color:#787878;stop-opacity:0.2621"/>
	<stop  offset="0.7322" style="stop-color:#A4A4A4;stop-opacity:0.1634"/>
	<stop  offset="0.8144" style="stop-color:#D5D5D5;stop-opacity:6.950000e-02"/>
	<stop  offset="0.8752" style="stop-color:#FFFFFF;stop-opacity:0"/>
</linearGradient>
<polygon class="st17" points="177.2,493 165.5,478.5 190.9,471.2 207.1,479.7 "/>
<circle class="st9" cx="176.2" cy="467.8" r="15.1"/>
<path class="st10" d="M182,456.1c-0.3,0.4-0.9,0.3-1.4,0l0,0c-0.5-0.4-0.7-1-0.4-1.3l2.7-3.6c0.3-0.4,0.9-0.3,1.4,0l0,0
	c0.5,0.4,0.7,1,0.4,1.3L182,456.1z"/>
<linearGradient id="SVGID_9_" gradientUnits="userSpaceOnUse" x1="234.4599" y1="425.1475" x2="247.0257" y2="405.49" gradientTransform="matrix(0.739 0.1144 -0.2092 -0.8978 34.257 773.3051)">
	<stop  offset="0" style="stop-color:#000000"/>
	<stop  offset="0.1482" style="stop-color:#030303;stop-opacity:0.8307"/>
	<stop  offset="0.2631" style="stop-color:#0D0D0D;stop-opacity:0.6994"/>
	<stop  offset="0.3669" style="stop-color:#1D1D1D;stop-opacity:0.5809"/>
	<stop  offset="0.464" style="stop-color:#353535;stop-opacity:0.4698"/>
	<stop  offset="0.5566" style="stop-color:#535353;stop-opacity:0.364"/>
	<stop  offset="0.6458" style="stop-color:#787878;stop-opacity:0.2621"/>
	<stop  offset="0.7322" style="stop-color:#A4A4A4;stop-opacity:0.1634"/>
	<stop  offset="0.8144" style="stop-color:#D5D5D5;stop-opacity:6.950000e-02"/>
	<stop  offset="0.8752" style="stop-color:#FFFFFF;stop-opacity:0"/>
</linearGradient>
<polygon class="st18" points="120.4,434.3 112.3,425.9 127.6,425.1 138.8,430.7 "/>
<circle class="st9" cx="115.1" cy="419.4" r="7.2"/>
<circle class="st15" cx="127.3" cy="423.8" r="2.9"/>
<path class="st10" d="M113.5,413.1c0.1,0.2,0,0.5-0.3,0.6l0,0c-0.3,0.1-0.6,0.1-0.7-0.1l-1-1.8c-0.1-0.2,0-0.5,0.3-0.6l0,0
	c0.3-0.1,0.6-0.1,0.7,0.1L113.5,413.1z"/>
<path class="st10" d="M127.5,421.4c0,0.1-0.1,0.1-0.2,0.1l0,0c-0.1,0-0.2-0.1-0.2-0.2l0.1-0.8c0-0.1,0.1-0.1,0.2-0.1l0,0
	c0.1,0,0.2,0.1,0.2,0.2L127.5,421.4z"/>
<g>
	<path class="st0" d="M192.2,432.4c-0.8,0.8-2.1,0.8-2.8,0l0,0c-0.8-0.8-0.8-2.1,0-2.8l12.9-13c0.8-0.8,2.1-0.8,2.8,0l0,0
		c0.8,0.8,0.8,2.1,0,2.8L192.2,432.4z"/>
	<path class="st0" d="M197.6,432.4c-1.1,0.2-2.1-0.6-2.3-1.7l0,0c-0.2-1.1,0.6-2.1,1.7-2.3l18.1-3c1.1-0.2,2.1,0.6,2.3,1.7l0,0
		c0.2,1.1-0.6,2.1-1.7,2.3L197.6,432.4z"/>
	<path class="st0" d="M196.9,437.1c-0.7-0.4-0.9-1.5-0.4-2.5l0,0c0.5-1,1.5-1.5,2.3-1.1l12.3,6.4c0.7,0.4,0.9,1.5,0.4,2.5l0,0
		c-0.5,1-1.5,1.5-2.3,1.1L196.9,437.1z"/>
	<path class="st14" d="M190.3,415.7c0.9-0.3,8.8,7.6,9,8.5c0.5,2.2,1.6,6.5,2.1,8.7c0.2,0.9-2.7,13.3-3.6,13.5
		c-18.7,2.7-75.4,3.4-75.4,3.4c-0.9,0.2-1.8-0.3-2-1.2l0,0c-0.2-0.9,0.3-1.8,1.2-2C121.6,446.5,172.5,421.9,190.3,415.7z"/>
</g>
</svg>
