<?xml version="1.0" encoding="utf-8"?>
<!-- Generator: Adobe Illustrator 19.0.0, SVG Export Plug-In . SVG Version: 6.00 Build 0)  -->
<svg version="1.1" id="Layer_1" xmlns="http://www.w3.org/2000/svg" xmlns:xlink="http://www.w3.org/1999/xlink" x="0px" y="0px"
	 viewBox="-115 207 380 290" style="enable-background:new -115 207 380 290;" xml:space="preserve">
<style type="text/css">
	.st0{opacity:0.1;fill:url(#SVGID_1_);enable-background:new    ;}
	.st1{fill:#F7F7F7;}
	.st2{fill:#378AC6;}
	.st3{font-family:'ArialMT';}
	.st4{font-size:61.6589px;}
	.st5{fill:#D35400;}
	.st6{font-size:10px;}
	.st7{fill:none;stroke:#D8594D;stroke-miterlimit:10;}
	.st8{fill:none;stroke:#D8594D;stroke-width:0.25;stroke-miterlimit:10;}
	.st9{fill:none;stroke:#378AC6;stroke-width:0.25;stroke-miterlimit:10;}
	.st10{fill:#F6CB6B;}
	.st11{fill:#FC4482;}
	.st12{fill:#7CDFAA;}
	.st13{opacity:0.8;fill:#D35400;enable-background:new    ;}
	.st14{opacity:0.1;fill:url(#SVGID_2_);enable-background:new    ;}
	.st15{opacity:0.1;fill:url(#SVGID_3_);enable-background:new    ;}
	.st16{fill:#7E2241;}
	.st17{fill:#43AAA0;}
	.st18{fill:#FFF140;}
	.st19{clip-path:url(#SVGID_5_);fill:#378AC6;}
	.st20{fill:#D8594D;}
</style>
<linearGradient id="SVGID_1_" gradientUnits="userSpaceOnUse" x1="-5.6058" y1="478.0677" x2="127.277" y2="270.1919" gradientTransform="matrix(0.9983 -5.780000e-02 -5.780000e-02 -0.9983 67.4616 751.4233)">
	<stop  offset="0" style="stop-color:#000000"/>
	<stop  offset="8.450000e-02" style="stop-color:#101010;stop-opacity:0.9034"/>
	<stop  offset="0.2495" style="stop-color:#393939;stop-opacity:0.715"/>
	<stop  offset="0.4785" style="stop-color:#7C7C7C;stop-opacity:0.4533"/>
	<stop  offset="0.76" style="stop-color:#D8D8D8;stop-opacity:0.1316"/>
	<stop  offset="0.8752" style="stop-color:#FFFFFF;stop-opacity:0"/>
</linearGradient>
<polygon class="st0" points="7.6,414.4 -37,354.2 208.2,354.2 255.3,401.7 "/>
<g>
	<rect x="-42.5" y="230.1" class="st1" width="255" height="129.7"/>
	<g>
		<text transform="matrix(1 0 0 1 -19.1699 317.0293)" class="st2 st3 st4">20</text>
	</g>
	<text transform="matrix(1 0 0 1 -5.7949 255.6133)" class="st5 st3 st6">Thứ Năm</text>
	<text transform="matrix(1 0 0 1 -10.4629 346.2803)" class="st5 st3 st6">Tháng Mười</text>
	<line class="st7" x1="-5.8" y1="260.9" x2="40.1" y2="260.9"/>
	<line class="st7" x1="-15.5" y1="330.9" x2="56.4" y2="330.9"/>
	<rect x="72.7" y="260.9" class="st8" width="18.4" height="17.5"/>
	<rect x="91.1" y="260.9" class="st8" width="18.4" height="17.5"/>
	<rect x="109.5" y="260.9" class="st8" width="18.4" height="17.5"/>
	<rect x="127.9" y="260.9" class="st8" width="18.4" height="17.5"/>
	<rect x="146.3" y="260.9" class="st8" width="18.4" height="17.5"/>
	<rect x="164.7" y="260.9" class="st8" width="18.4" height="17.5"/>
	<rect x="183" y="260.9" class="st8" width="18.4" height="17.5"/>
	<rect x="72.7" y="278.4" class="st8" width="18.4" height="17.5"/>
	<rect x="91.1" y="278.4" class="st8" width="18.4" height="17.5"/>
	<rect x="109.5" y="278.4" class="st8" width="18.4" height="17.5"/>
	<rect x="127.9" y="278.4" class="st8" width="18.4" height="17.5"/>
	<rect x="146.3" y="278.4" class="st8" width="18.4" height="17.5"/>
	<rect x="164.7" y="278.4" class="st8" width="18.4" height="17.5"/>
	<rect x="183" y="278.4" class="st8" width="18.4" height="17.5"/>
	<rect x="72.7" y="295.9" class="st8" width="18.4" height="17.5"/>
	<rect x="91.1" y="295.9" class="st8" width="18.4" height="17.5"/>
	<rect x="109.5" y="295.9" class="st8" width="18.4" height="17.5"/>
	<rect x="127.9" y="295.9" class="st8" width="18.4" height="17.5"/>
	<rect x="146.3" y="295.9" class="st8" width="18.4" height="17.5"/>
	<rect x="164.7" y="295.9" class="st8" width="18.4" height="17.5"/>
	<rect x="183" y="295.9" class="st8" width="18.4" height="17.5"/>
	<rect x="72.7" y="313.4" class="st8" width="18.4" height="17.5"/>
	<rect x="91.1" y="313.4" class="st8" width="18.4" height="17.5"/>
	<rect x="109.5" y="313.4" class="st8" width="18.4" height="17.5"/>
	<rect x="127.9" y="313.4" class="st8" width="18.4" height="17.5"/>
	<rect x="146.3" y="313.4" class="st8" width="18.4" height="17.5"/>
	<rect x="164.7" y="313.4" class="st8" width="18.4" height="17.5"/>
	<rect x="183" y="313.4" class="st8" width="18.4" height="17.5"/>
	<rect x="72.7" y="248.9" class="st9" width="18.4" height="6.7"/>
	<rect x="91.1" y="248.9" class="st9" width="18.4" height="6.7"/>
	<rect x="109.5" y="248.9" class="st9" width="18.4" height="6.7"/>
	<rect x="127.9" y="248.9" class="st9" width="18.4" height="6.7"/>
	<rect x="146.3" y="248.9" class="st9" width="18.4" height="6.7"/>
	<rect x="164.7" y="248.9" class="st9" width="18.4" height="6.7"/>
	<rect x="183" y="248.9" class="st9" width="18.4" height="6.7"/>
</g>
<path class="st10" d="M19.9,451.8c-0.1,19.5-14.6,21.3-31.9,21.2l0,0c-17.4-0.1-31.1-2-31-21.6l0.3-100.8
	c0.1-19.5,14.3-29.3,31.7-29.2l0,0c17.4,0.1,31.4,10,31.2,29.6L19.9,451.8z"/>
<path class="st10" d="M-0.5,328.1c0,3.9-4.9,7.1-11,7.1l0,0c-6.1,0-11-3.2-11-7.1v-52.8c0-3.9,4.9-7.1,11-7.1l0,0
	c6.1,0,11,3.2,11,7.1V328.1z"/>
<circle class="st11" cx="49.5" cy="410.3" r="5.3"/>
<path class="st1" d="M97.2,469.9c4.2-5.7,6.6-12.2,6.6-19.2c0-21.8-23.2-39.4-51.9-39.4S-0.1,429-0.1,450.7c0,5.4,1.5,10.6,4.1,15.3
	"/>
<path class="st12" d="M73.2,420.3c-0.5-0.1-1.1,0.4-1.2,1.1l0,0c-0.2,0.7,0.1,1.4,0.6,1.5l5.1,1.1c0.5,0.1,1.1-0.4,1.2-1.1l0,0
	c0.2-0.7-0.1-1.4-0.6-1.5L73.2,420.3z"/>
<path class="st12" d="M68.4,437.8c-0.3-0.4-1.1-0.3-1.6,0.1l0,0c-0.5,0.5-0.7,1.2-0.4,1.6l3.4,3.9c0.3,0.4,1.1,0.3,1.6-0.1l0,0
	c0.5-0.5,0.7-1.2,0.4-1.6L68.4,437.8z"/>
<path class="st12" d="M39.1,433.6c0.4-0.3,0.3-1.1-0.1-1.6l0,0c-0.5-0.5-1.2-0.7-1.6-0.4l-3.9,3.4c-0.4,0.3-0.3,1.1,0.1,1.6l0,0
	c0.5,0.5,1.2,0.7,1.6,0.4L39.1,433.6z"/>
<path class="st12" d="M48.1,447c0.3-0.5,0-1.1-0.7-1.5l0,0c-0.6-0.3-1.3-0.3-1.6,0.2l-2.5,4.5c-0.3,0.5,0,1.1,0.7,1.5l0,0
	c0.6,0.3,1.3,0.3,1.6-0.2L48.1,447z"/>
<path class="st12" d="M13.8,445.8c-0.2-0.5-0.9-0.7-1.6-0.4l0,0c-0.7,0.3-1.1,0.9-0.9,1.3l1.8,4.9c0.2,0.5,0.9,0.7,1.6,0.4l0,0
	c0.7-0.3,1.1-0.9,0.9-1.3L13.8,445.8z"/>
<path class="st12" d="M23.3,431.4c-0.1-0.3-0.8-0.3-1.4-0.1l0,0c-0.7,0.3-1.1,0.7-1,1l1.1,3c0.1,0.3,0.8,0.3,1.4,0.1l0,0
	c0.7-0.3,1.1-0.7,1-1L23.3,431.4z"/>
<path class="st12" d="M53.8,415.9c0.2-0.3-0.2-0.8-0.8-1.2l0,0c-0.6-0.4-1.2-0.5-1.4-0.2l-1.7,2.7c-0.2,0.3,0.2,0.8,0.8,1.2l0,0
	c0.6,0.4,1.2,0.5,1.4,0.2L53.8,415.9z"/>
<path class="st12" d="M86.4,432.3c-0.1-0.3-0.8-0.3-1.4-0.1l0,0c-0.7,0.3-1.1,0.7-1,1l1.1,3c0.1,0.3,0.8,0.3,1.4,0.1l0,0
	c0.7-0.3,1.1-0.7,1-1L86.4,432.3z"/>
<path class="st12" d="M92.1,448.9c0.2-0.5-0.1-1.1-0.8-1.4l0,0c-0.7-0.3-1.4-0.1-1.6,0.3l-2.1,4.7c-0.2,0.5,0.1,1.1,0.8,1.4l0,0
	c0.7,0.3,1.4,0.1,1.6-0.3L92.1,448.9z"/>
<path class="st13" d="M0.4,443.2c4.7-18.1,25.7-31.8,50.9-31.8c28.7,0,51.9,17.6,51.9,39.4c0,1-0.1,1.9-0.1,2.9
	c-4,3.2-10.9,3.3-17.4-8.1c-13-22.7-25.9-32-35.8-23.4c-5.4,4.6-20,9-24.6,2.9c-4.6-6.1-8.7-1.1-10.5,7.3
	C14.2,435,5.8,443.9,0.4,443.2z"/>
<linearGradient id="SVGID_2_" gradientUnits="userSpaceOnUse" x1="1.9017" y1="363.7209" x2="148.4069" y2="134.535" gradientTransform="matrix(0.9983 -5.780000e-02 -5.780000e-02 -0.9983 67.4616 751.4233)">
	<stop  offset="0" style="stop-color:#000000"/>
	<stop  offset="8.450000e-02" style="stop-color:#101010;stop-opacity:0.9034"/>
	<stop  offset="0.2495" style="stop-color:#393939;stop-opacity:0.715"/>
	<stop  offset="0.4785" style="stop-color:#7C7C7C;stop-opacity:0.4533"/>
	<stop  offset="0.76" style="stop-color:#D8D8D8;stop-opacity:0.1316"/>
	<stop  offset="0.8752" style="stop-color:#FFFFFF;stop-opacity:0"/>
</linearGradient>
<polygon class="st14" points="88.9,573.7 -24.8,472.2 220.4,472.2 286.6,532.4 "/>
<linearGradient id="SVGID_3_" gradientUnits="userSpaceOnUse" x1="-89.3941" y1="318.123" x2="-66.4634" y2="282.2513" gradientTransform="matrix(0.739 0.1144 -0.2092 -0.8978 66.8247 752.1596)">
	<stop  offset="0" style="stop-color:#000000"/>
	<stop  offset="8.450000e-02" style="stop-color:#101010;stop-opacity:0.9034"/>
	<stop  offset="0.2495" style="stop-color:#393939;stop-opacity:0.715"/>
	<stop  offset="0.4785" style="stop-color:#7C7C7C;stop-opacity:0.4533"/>
	<stop  offset="0.76" style="stop-color:#D8D8D8;stop-opacity:0.1316"/>
	<stop  offset="0.8752" style="stop-color:#FFFFFF;stop-opacity:0"/>
</linearGradient>
<polygon class="st15" points="-59.3,484.7 -75.7,468.8 -48.1,470.2 -30.6,479.9 "/>
<circle class="st16" cx="142.9" cy="441.5" r="21.7"/>
<circle class="st11" cx="121.2" cy="445.6" r="17.5"/>
<path class="st17" d="M149.1,421.2c-0.3,0.4,0,1.1,0.5,1.5l0,0c0.6,0.4,1.3,0.4,1.6-0.1l2.9-4.3c0.3-0.4,0-1.1-0.6-1.5l0,0
	c-0.6-0.4-1.3-0.4-1.6,0.1L149.1,421.2z"/>
<circle class="st11" cx="161.6" cy="452.7" r="8.3"/>
<path class="st17" d="M161.3,447c0.1,0.2,0.4,0.4,0.7,0.3l0,0c0.3-0.1,0.5-0.4,0.5-0.6l-0.7-2.4c-0.1-0.2-0.4-0.4-0.7-0.3l0,0
	c-0.3,0.1-0.5,0.4-0.5,0.6L161.3,447z"/>
<circle class="st16" cx="103.7" cy="457" r="8.3"/>
<polyline class="st2" points="74.2,474.7 -28.9,474.7 -50.6,457.7 74.2,457.7 73.5,457.7 198.3,457.7 176.5,474.7 73.5,474.7 "/>
<g>
	<polygon class="st18" points="-16.4,364.5 -59.3,406.1 -102.1,364.5 	"/>
	<path class="st18" d="M-56.8,467.1c0,1.5-1.1,2.6-2.4,2.6l0,0c-1.3,0-2.4-1.2-2.4-2.6V389c0-1.5,1.1-2.6,2.4-2.6l0,0
		c1.3,0,2.4,1.2,2.4,2.6V467.1z"/>
	<path class="st17" d="M-42,366.4c1.6,3.7,5.9,5.4,9.6,3.8c3.7-1.6,5.4-5.9,3.8-9.6c-1.6-3.7-5.9-5.4-9.6-3.8
		C-41.9,358.4-43.6,362.7-42,366.4z"/>
	<g>
		<g>
			<defs>
				<polygon id="SVGID_4_" points="-16.4,364.5 -59.3,406.1 -102.1,364.5 				"/>
			</defs>
			<clipPath id="SVGID_5_">
				<use xlink:href="#SVGID_4_"  style="overflow:visible;"/>
			</clipPath>
			<path class="st19" d="M-105.3,387.7c0,0,12.4-13,32.8-8s26.1,7.7,33,5.6c6.9-2.1-8.6,25.9-7.1,29.9s-53.5,4.5-53.5,4.5
				L-105.3,387.7z"/>
		</g>
	</g>
	<rect x="-73.2" y="466.2" class="st18" width="27.6" height="4"/>
</g>
<path class="st1" d="M15.1,402.4c0,2.1-1.7,3.7-3.7,3.7l0,0c-2.1,0-3.7-1.7-3.7-3.7v-53.6c0-2.1,1.7-3.7,3.7-3.7l0,0
	c2.1,0,3.7,1.7,3.7,3.7V402.4z"/>
<rect x="-24.8" y="274.9" class="st1" width="26.6" height="3.7"/>
<rect x="-23.8" y="265.6" class="st20" width="24.6" height="8.4"/>
</svg>
